# xmcd
#
# Track frame offsets:
# 180
# 18712
# 39885
# 54439
# 78134
# 93518
# 112707
# 128089
# 150269
# 175641
# 188909
# 217793
# 241932
# 263750
#
# Disc length: 3800 seconds
#
#
# Revision: 0
# Processed by: cddbd v1.5.1PL0 Copyright (c) Steve Scherf et al.
# Submitted via: FreeRIP 2.53 
#
DISCID=9a0ed60e
DTITLE=Liz Pennock and Dr. Blues - Six Fingers Boogie
DYEAR=1996
DGENRE=Boogie Woogie
TTITLE0=He Plays The Boogie
TTITLE1=One Way Ticket Blues
TTITLE2=Don't Know What To Do
TTITLE3=Take It Slow
TTITLE4=In The Same Key
TTITLE5=I've Got A Mind To Ramble
TTITLE6=Six Finger Boogie
TTITLE7=Cruel Jewel
TTITLE8=Lizzy's Blues
TTITLE9=It's A Good Thing
TTITLE10=The Same For You
TTITLE11=Reservation
TTITLE12=Knee Deep In Trouble
TTITLE13=Going To New York
EXTD=Upright Records UR1016
EXTT0=
EXTT1=
EXTT2=
EXTT3=
EXTT4=
EXTT5=
EXTT6=
EXTT7=
EXTT8=
EXTT9=
EXTT10=
EXTT11=
EXTT12=
EXTT13=
PLAYORDER=
